# xmcd CD database file
#
# Track frame offsets:
#	150
#	22490
#	46309
#	79859
#	97612
#	127957
#	148576
#	179822
#	206145
#	233150
#	250475
#
# Disc length: 3606 seconds
#
# Revision: 0
# Processed by: cddbd v1.4PL0 Copyright (c) Steve Scherf et al.
# Submitted via: CDex 1.50Beta7
#
DISCID=9d0e140b
DTITLE=Uma Sibley - Soul of the Beloved
DYEAR=2002
DGENRE=New Age
TTITLE0=Emergence
TTITLE1=Awakening
TTITLE2=Peaceful Heart
TTITLE3=Ocean of Love
TTITLE4=Soul Dance
TTITLE5=Poignant Love
TTITLE6=Tears of Joy
TTITLE7=Garden of Love
TTITLE8=Grace
TTITLE9=Soliloquy for Harp
TTITLE10=Joy
EXTD=YEAR: 2002
EXTT0=
EXTT1=
EXTT2=
EXTT3=
EXTT4=
EXTT5=
EXTT6=
EXTT7=
EXTT8=
EXTT9=
EXTT10=
PLAYORDER=
